<?xml version="1.0" standalone="no"?>
<!DOCTYPE svg PUBLIC "-//W3C//DTD SVG 20010904//EN"
 "http://www.w3.org/TR/2001/REC-SVG-20010904/DTD/svg10.dtd">
<svg version="1.0" xmlns="http://www.w3.org/2000/svg"
 width="500.000000pt" height="500.000000pt" viewBox="0 0 500.000000 500.000000"
 preserveAspectRatio="xMidYMid meet">
<metadata>
Created by potrace 1.14, written by Peter Selinger 2001-2017
</metadata>
<g transform="translate(0.000000,500.000000) scale(0.100000,-0.100000)"
fill="#000000" stroke="none">
<path d="M2179 4572 c-149 -50 -273 -269 -369 -649 -9 -35 -14 -41 -33 -38
-136 21 -180 31 -236 50 -103 36 -150 64 -236 146 -91 87 -140 116 -205 123
-149 14 -234 -124 -174 -283 35 -94 156 -259 248 -341 22 -19 48 -43 58 -52
10 -10 22 -18 27 -18 5 0 11 -4 13 -9 2 -5 31 -27 65 -49 l63 -40 -38 -28
c-88 -68 -259 -230 -312 -297 l-35 -45 -75 0 c-207 1 -404 -53 -561 -154 -71
-45 -148 -124 -203 -207 -59 -89 -125 -253 -128 -316 0 -5 -4 -17 -8 -26 -21
-38 -31 -289 -17 -421 35 -327 206 -596 487 -763 36 -22 67 -40 69 -41 1 -2
-8 -38 -22 -81 -30 -93 -59 -192 -62 -213 -15 -109 -18 -137 -20 -173 -2 -52
18 -125 42 -149 39 -38 258 -83 427 -87 83 -2 210 19 276 45 21 8 43 26 50 40
16 29 18 162 5 274 -5 41 -9 93 -10 115 0 37 2 40 25 38 14 -1 54 -5 90 -8
127 -10 309 -16 588 -17 l283 -1 -6 -51 c-11 -95 -14 -361 -4 -411 15 -80 27
-102 68 -119 34 -13 61 -18 186 -32 41 -5 261 -5 310 0 39 4 76 10 123 21 12
3 32 7 44 10 62 13 120 39 133 59 11 16 13 44 10 111 -6 103 -13 177 -20 220
-3 17 -7 50 -10 75 -2 25 -6 72 -10 104 -3 33 -7 62 -7 65 -2 20 5 27 29 29
15 1 68 9 118 18 49 9 99 18 110 19 104 15 513 134 543 158 7 5 15 7 19 4 3
-4 8 -64 10 -134 5 -145 20 -202 63 -233 30 -21 93 -46 139 -55 33 -7 208 -7
241 0 13 2 42 7 65 10 72 11 199 45 241 66 75 36 87 117 40 284 -6 23 -17 67
-51 205 -19 80 -43 175 -54 212 l-20 68 32 22 c18 12 38 30 45 40 7 9 18 23
25 30 23 24 39 76 41 136 1 48 7 65 32 98 118 154 254 426 249 499 -3 44 -3
43 -25 65 -32 32 -86 26 -171 -19 -134 -70 -144 -76 -151 -86 -4 -5 -8 -6 -8
-2 0 5 -13 -1 -29 -12 l-28 -20 -29 67 c-102 242 -280 538 -414 686 -67 75
-195 203 -228 227 l-33 25 63 33 c218 117 416 313 509 506 35 72 34 185 -1
237 -50 74 -151 94 -244 48 -24 -11 -77 -53 -118 -93 -80 -78 -173 -134 -271
-162 -64 -18 -218 -45 -228 -39 -3 1 -11 29 -19 61 -24 108 -92 297 -143 395
-81 157 -178 238 -286 242 -72 3 -183 -21 -290 -63 -136 -53 -185 -52 -321 7
-115 49 -268 69 -341 44z"/>
</g>
</svg>
